<svg xmlns="http://www.w3.org/2000/svg" viewBox="0 0 100 100" fill="none">
  <!-- Background Circle -->
  <circle cx="50" cy="50" r="48" fill="url(#gradient)" stroke="#E5E7EB" stroke-width="2"/>
  
  <!-- Gradient Definition -->
  <defs>
    <linearGradient id="gradient" x1="0%" y1="0%" x2="100%" y2="100%">
      <stop offset="0%" style="stop-color:#667eea;stop-opacity:1" />
      <stop offset="100%" style="stop-color:#764ba2;stop-opacity:1" />
    </linearGradient>
    <linearGradient id="whiteGradient" x1="0%" y1="0%" x2="100%" y2="100%">
      <stop offset="0%" style="stop-color:#ffffff;stop-opacity:0.9" />
      <stop offset="100%" style="stop-color:#f8fafc;stop-opacity:0.8" />
    </linearGradient>
  </defs>
  
  <!-- AI Brain/Circuit Pattern -->
  <g transform="translate(20, 20)">
    <!-- Central Node -->
    <circle cx="30" cy="30" r="4" fill="white" opacity="0.9"/>
    
    <!-- Neural Network Lines -->
    <g stroke="white" stroke-width="1.5" opacity="0.7">
      <line x1="30" y1="30" x2="15" y2="15"/>
      <line x1="30" y1="30" x2="45" y2="15"/>
      <line x1="30" y1="30" x2="15" y2="45"/>
      <line x1="30" y1="30" x2="45" y2="45"/>
      <line x1="30" y1="30" x2="30" y2="10"/>
      <line x1="30" y1="30" x2="30" y2="50"/>
    </g>
    
    <!-- Outer Nodes -->
    <circle cx="15" cy="15" r="2" fill="white" opacity="0.8"/>
    <circle cx="45" cy="15" r="2" fill="white" opacity="0.8"/>
    <circle cx="15" cy="45" r="2" fill="white" opacity="0.8"/>
    <circle cx="45" cy="45" r="2" fill="white" opacity="0.8"/>
    <circle cx="30" cy="10" r="2" fill="white" opacity="0.8"/>
    <circle cx="30" cy="50" r="2" fill="white" opacity="0.8"/>
  </g>
  
  <!-- Scales of Justice -->
  <g transform="translate(35, 55)">
    <!-- Scale Post -->
    <rect x="14" y="5" width="2" height="25" fill="white" opacity="0.9"/>
    <!-- Scale Beam -->
    <rect x="5" y="10" width="20" height="1.5" fill="white" opacity="0.9"/>
    <!-- Left Scale Pan -->
    <ellipse cx="8" cy="12" rx="4" ry="2" fill="white" opacity="0.8"/>
    <!-- Right Scale Pan -->
    <ellipse cx="22" cy="12" rx="4" ry="2" fill="white" opacity="0.8"/>
    <!-- Scale Chains -->
    <line x1="8" y1="12" x2="8" y2="10" stroke="white" stroke-width="1" opacity="0.7"/>
    <line x1="22" y1="12" x2="22" y2="10" stroke="white" stroke-width="1" opacity="0.7"/>
    <!-- Base -->
    <rect x="12" y="30" width="6" height="3" rx="1.5" fill="white" opacity="0.9"/>
  </g>
  
  <!-- Legal Document Icon -->
  <g transform="translate(15, 25)">
    <rect x="0" y="0" width="12" height="16" rx="1" fill="white" opacity="0.6"/>
    <line x1="2" y1="4" x2="10" y2="4" stroke="#667eea" stroke-width="0.8"/>
    <line x1="2" y1="7" x2="10" y2="7" stroke="#667eea" stroke-width="0.8"/>
    <line x1="2" y1="10" x2="8" y2="10" stroke="#667eea" stroke-width="0.8"/>
  </g>
  
  <!-- Gavel Icon -->
  <g transform="translate(65, 25)">
    <rect x="0" y="6" width="8" height="4" rx="2" fill="white" opacity="0.7"/>
    <rect x="7" y="7.5" width="10" height="1" fill="white" opacity="0.7"/>
    <circle cx="18" cy="8" r="1.5" fill="white" opacity="0.7"/>
  </g>
</svg>
